<svg width="1443" height="354" fill="none" xmlns="http://www.w3.org/2000/svg">
    <path fill="#F4F7FF" d="M1 6h1441v347H1z"/>
    <path d="M1 310.51c202.703 0 347.472-34.877 480.333-32.752 309.407 4.947 163.306-142.076 480.334-142.076C1306.86 135.682 1224.24 6 1442 6" stroke="#5E80FE" stroke-width="3"/>
    <path d="M481.333 277.758C348.472 275.633 203.703 310.51 1 310.51V353h1441V6c-217.76 0-135.14 129.682-480.333 129.682-317.028 0-170.927 147.023-480.334 142.076Z" stroke="#5E80FE"/>
    <g filter="url(#a)">
        <circle cx="925.5" cy="136.5" r="6.5" stroke="#5E80FE" stroke-width="2"/>
    </g>
    <g filter="url(#b)">
        <circle cx="1333.5" cy="22.5" r="6.5" stroke="#5E80FE" stroke-width="2"/>
    </g>
    <path stroke="#5E80FE" d="M516.5 266v59"/>
    <g filter="url(#c)">
        <circle cx="108.5" cy="307.5" r="6.5" stroke="#5E80FE" stroke-width="2"/>
    </g>
    <defs>
        <filter id="a" x="903" y="114" width="45" height="45" filterUnits="userSpaceOnUse" color-interpolation-filters="sRGB">
            <feFlood flood-opacity="0" result="BackgroundImageFix"/>
            <feColorMatrix in="SourceAlpha" values="0 0 0 0 0 0 0 0 0 0 0 0 0 0 0 0 0 0 127 0" result="hardAlpha"/>
            <feOffset/>
            <feGaussianBlur stdDeviation="7.5"/>
            <feColorMatrix values="0 0 0 0 0.323144 0 0 0 0 0.512664 0 0 0 0 1 0 0 0 0.25 0"/>
            <feBlend in2="BackgroundImageFix" result="effect1_dropShadow_5_3"/>
            <feBlend in="SourceGraphic" in2="effect1_dropShadow_5_3" result="shape"/>
        </filter>
        <filter id="b" x="1311" y="0" width="45" height="45" filterUnits="userSpaceOnUse" color-interpolation-filters="sRGB">
            <feFlood flood-opacity="0" result="BackgroundImageFix"/>
            <feColorMatrix in="SourceAlpha" values="0 0 0 0 0 0 0 0 0 0 0 0 0 0 0 0 0 0 127 0" result="hardAlpha"/>
            <feOffset/>
            <feGaussianBlur stdDeviation="7.5"/>
            <feColorMatrix values="0 0 0 0 0.323144 0 0 0 0 0.512664 0 0 0 0 1 0 0 0 0.25 0"/>
            <feBlend in2="BackgroundImageFix" result="effect1_dropShadow_5_3"/>
            <feBlend in="SourceGraphic" in2="effect1_dropShadow_5_3" result="shape"/>
        </filter>
        <filter id="c" x="86" y="285" width="45" height="45" filterUnits="userSpaceOnUse" color-interpolation-filters="sRGB">
            <feFlood flood-opacity="0" result="BackgroundImageFix"/>
            <feColorMatrix in="SourceAlpha" values="0 0 0 0 0 0 0 0 0 0 0 0 0 0 0 0 0 0 127 0" result="hardAlpha"/>
            <feOffset/>
            <feGaussianBlur stdDeviation="7.5"/>
            <feColorMatrix values="0 0 0 0 0.323144 0 0 0 0 0.512664 0 0 0 0 1 0 0 0 0.25 0"/>
            <feBlend in2="BackgroundImageFix" result="effect1_dropShadow_5_3"/>
            <feBlend in="SourceGraphic" in2="effect1_dropShadow_5_3" result="shape"/>
        </filter>
    </defs>
</svg>
